<?xml version="1.0" encoding="UTF-8" standalone="no"?>
<!DOCTYPE svg PUBLIC "-//W3C//DTD SVG 1.1//EN" "http://www.w3.org/Graphics/SVG/1.1/DTD/svg11.dtd">
<svg xmlns="http://www.w3.org/2000/svg" version="1.1" viewBox="0.00 0.00 150.00 150.00">
<path fill="#000000" d="
  M 137.77 75.01
  A 62.77 62.77 0.0 0 1 75.00 137.78
  A 62.77 62.77 0.0 0 1 12.23 75.01
  A 62.77 62.77 0.0 0 1 75.00 12.24
  A 62.77 62.77 0.0 0 1 137.77 75.01
  Z
  M 84.30 107.91
  Q 90.85 110.21 92.95 112.12
  Q 95.89 114.79 96.71 115.09
  A 0.05 0.03 -13.3 0 1 96.74 115.10
  L 100.33 119.44
  A 4.01 3.59 46.4 0 1 100.66 119.90
  L 102.69 123.35
  A 1.81 1.73 27.0 0 1 102.89 123.92
  Q 103.16 125.65 104.14 127.39
  A 1.03 1.03 0.0 0 0 105.52 127.80
  C 112.50 124.11 118.44 118.24 123.62 112.22
  A 1.64 1.56 74.6 0 0 123.97 111.57
  Q 124.25 110.55 125.72 109.27
  C 126.49 108.59 126.13 107.82 126.78 107.22
  Q 127.16 106.86 127.55 106.22
  Q 132.25 98.47 134.26 89.83
  Q 138.08 73.42 133.61 57.45
  C 133.35 56.54 132.57 55.67 132.75 54.90
  A 0.88 0.88 0.0 0 0 132.52 54.10
  Q 132.02 53.58 130.82 49.88
  Q 130.13 47.76 125.24 40.06
  C 123.66 37.57 121.63 35.67 119.74 33.43
  Q 117.49 30.78 115.34 28.99
  Q 92.37 9.82 62.90 15.00
  Q 52.66 16.80 41.65 23.68
  C 37.01 26.59 31.85 31.52 28.83 35.00
  Q 25.94 38.31 23.67 41.80
  Q 14.39 56.08 14.09 73.51
  Q 13.94 81.72 15.46 89.09
  A 1.14 1.14 0.0 0 0 16.81 89.98
  Q 24.38 88.45 27.79 82.07
  C 28.68 80.40 29.26 77.95 30.08 75.53
  Q 30.81 73.41 31.26 70.49
  Q 32.23 64.13 33.55 57.71
  A 3.89 3.89 0.0 0 1 33.98 56.54
  Q 34.98 54.73 35.38 52.99
  A 5.04 4.91 64.8 0 1 35.68 52.12
  Q 43.23 35.85 60.68 30.13
  Q 73.03 26.09 85.31 30.90
  C 86.70 31.44 87.24 32.69 88.32 32.96
  Q 89.11 33.16 89.43 33.45
  Q 101.56 44.15 98.73 60.74
  A 4.25 4.21 37.1 0 0 99.10 63.31
  Q 100.72 66.58 103.64 70.73
  Q 104.53 72.00 103.98 73.11
  Q 102.82 75.44 100.70 76.13
  A 1.13 1.13 0.0 0 0 100.00 77.63
  Q 100.93 79.86 99.10 81.04
  A 0.85 0.85 0.0 0 0 98.71 81.87
  Q 98.98 83.89 96.88 85.17
  A 1.81 1.79 86.3 0 0 96.15 86.01
  Q 95.96 86.42 95.43 89.22
  Q 94.95 91.74 92.92 92.88
  Q 91.13 93.89 88.42 93.68
  Q 85.39 93.44 83.35 92.49
  A 1.07 1.07 0.0 0 0 81.82 93.50
  L 82.04 100.31
  A 1.43 1.26 -55.5 0 0 82.08 100.64
  L 83.81 107.37
  A 0.78 0.77 3.0 0 0 84.30 107.91
  Z
  M 42.85 45.81
  Q 52.05 39.02 59.85 36.15
  Q 63.47 34.81 65.99 34.51
  Q 69.86 34.04 78.66 33.79
  A 1.06 0.40 -24.4 0 0 78.81 33.78
  L 82.30 33.08
  A 0.35 0.35 0.0 0 0 82.45 32.47
  Q 81.75 31.92 80.99 31.74
  Q 70.56 29.25 60.67 32.74
  Q 49.85 36.55 42.49 45.42
  A 0.27 0.27 0.0 0 0 42.85 45.81
  Z
  M 16.59 93.36
  L 17.76 95.39
  A 1.01 1.01 0.0 0 0 18.94 95.84
  C 23.72 94.29 28.55 93.08 30.38 90.84
  Q 31.70 89.23 32.86 88.21
  A 1.89 1.73 -13.8 0 0 33.38 87.43
  Q 34.82 83.23 35.31 80.81
  Q 36.25 76.13 36.90 70.61
  Q 37.72 63.54 38.99 60.54
  C 41.79 53.92 46.61 50.25 52.51 46.16
  C 57.36 42.79 61.13 40.47 66.57 39.01
  C 73.58 37.13 81.70 40.93 86.57 35.46
  A 0.74 0.73 32.2 0 0 86.30 34.29
  L 84.69 33.63
  A 1.51 1.46 -40.5 0 0 83.74 33.57
  Q 78.44 34.93 73.82 34.94
  Q 69.57 34.95 67.70 35.18
  Q 64.80 35.52 61.69 36.37
  Q 59.41 36.99 58.23 37.50
  Q 48.56 41.68 40.67 48.90
  Q 39.16 50.29 38.15 53.12
  Q 37.91 53.80 37.52 54.44
  A 8.68 8.57 68.0 0 0 36.51 56.86
  Q 34.84 63.69 34.32 67.11
  Q 33.45 72.91 31.93 78.25
  Q 31.46 79.93 29.48 83.70
  A 0.45 0.44 47.1 0 0 29.47 84.11
  Q 29.69 84.56 29.24 84.82
  C 28.17 85.45 27.95 87.01 26.87 87.92
  Q 22.27 91.79 17.00 92.54
  A 0.55 0.55 0.0 0 0 16.59 93.36
  Z
  M 18.35 97.17
  L 19.39 100.85
  A 0.39 0.38 -17.8 0 0 19.89 101.10
  Q 25.74 98.92 29.97 97.44
  Q 33.69 96.14 35.54 93.32
  Q 39.39 87.43 39.77 79.24
  Q 40.16 70.71 42.97 63.43
  A 2.39 2.29 79.0 0 1 43.50 62.61
  Q 44.72 61.41 45.06 60.45
  C 45.80 58.39 47.69 57.47 49.16 55.82
  Q 49.96 54.90 51.48 53.86
  Q 60.19 47.84 65.16 45.42
  Q 66.51 44.76 72.95 43.24
  A 1.26 1.12 34.3 0 1 73.26 43.20
  L 82.86 43.08
  A 1.35 1.30 -57.4 0 0 83.36 42.96
  Q 86.81 41.43 89.72 38.00
  A 1.09 1.09 0.0 0 0 88.21 36.44
  Q 84.78 39.13 81.52 39.90
  Q 79.97 40.28 74.01 40.03
  Q 68.28 39.80 65.21 40.99
  Q 57.30 44.07 46.78 52.57
  A 5.72 5.46 -1.7 0 0 45.92 53.44
  Q 44.33 55.43 42.52 57.69
  Q 40.92 59.71 39.51 65.01
  Q 38.53 68.71 37.41 79.31
  A 0.76 0.60 64.9 0 1 37.37 79.48
  L 35.19 87.07
  A 3.03 3.03 0.0 0 1 34.80 87.91
  Q 31.86 92.32 27.25 94.42
  Q 27.22 94.43 27.19 94.44
  L 18.49 96.91
  A 0.21 0.21 0.0 0 0 18.35 97.17
  Z
  M 91.07 39.20
  Q 89.61 40.06 87.41 42.64
  Q 86.92 43.22 83.18 44.77
  A 3.81 3.78 35.7 0 1 81.43 45.05
  Q 75.09 44.63 68.92 45.72
  A 3.52 3.29 -60.9 0 0 68.05 46.00
  Q 63.15 48.35 61.91 49.15
  Q 55.25 53.43 52.93 54.85
  C 50.31 56.46 47.68 59.14 46.37 60.65
  A 3.90 3.83 -13.1 0 0 45.69 61.72
  Q 45.55 62.05 45.65 62.39
  Q 45.69 62.52 44.84 63.07
  Q 44.27 63.43 44.49 64.00
  Q 44.74 64.67 44.04 64.93
  A 0.79 0.77 87.4 0 0 43.54 65.49
  Q 41.32 74.84 40.50 85.98
  Q 40.35 87.99 36.79 94.79
  A 2.93 2.70 85.4 0 1 36.18 95.57
  Q 31.91 99.27 28.59 99.91
  Q 24.78 100.65 21.90 102.06
  A 1.52 1.51 -33.3 0 0 21.41 104.40
  Q 22.46 105.63 23.07 107.29
  A 0.39 0.38 -27.6 0 0 23.66 107.47
  C 24.80 106.65 25.19 105.56 26.32 104.88
  Q 29.21 103.15 32.24 102.19
  Q 34.56 101.46 37.31 99.39
  Q 39.22 97.96 40.88 94.89
  Q 43.88 89.36 44.23 83.51
  Q 44.68 75.99 45.52 71.72
  A 2.42 2.27 67.8 0 1 45.81 70.96
  Q 46.58 69.59 46.45 68.83
  A 0.68 0.68 0.0 0 1 46.84 68.08
  Q 47.79 67.66 47.48 66.90
  A 0.62 0.62 0.0 0 1 47.76 66.11
  Q 48.76 65.59 49.07 64.33
  A 2.21 2.20 73.8 0 1 49.64 63.29
  Q 57.84 54.80 68.03 50.56
  Q 73.73 48.19 82.05 47.81
  A 2.87 2.74 29.6 0 0 83.09 47.55
  Q 88.31 45.08 91.55 39.69
  A 0.35 0.35 0.0 0 0 91.07 39.20
  Z
  M 87.86 55.71
  A 0.21 0.21 0.0 0 1 87.84 55.29
  Q 91.13 54.50 94.51 55.03
  C 95.34 55.16 95.67 55.79 96.26 55.95
  A 0.52 0.52 0.0 0 0 96.91 55.44
  Q 96.90 48.33 93.43 41.84
  A 0.25 0.25 0.0 0 0 92.98 41.87
  L 90.87 46.99
  A 1.15 1.09 -12.7 0 1 90.59 47.41
  L 86.58 51.43
  A 4.75 4.54 8.0 0 1 85.37 52.30
  Q 77.83 55.99 72.85 59.35
  Q 69.22 61.80 66.49 66.34
  Q 66.14 66.91 65.89 67.02
  Q 65.36 67.27 65.48 67.77
  Q 65.59 68.27 65.21 69.07
  Q 64.11 71.38 64.00 72.29
  Q 63.03 80.06 63.24 91.23
  Q 63.32 95.53 61.03 102.54
  A 2.81 2.78 -11.0 0 1 60.17 103.80
  Q 59.51 104.35 59.29 105.16
  A 2.96 2.92 73.0 0 1 58.71 106.27
  Q 54.03 111.81 47.34 116.01
  A 3.97 3.77 5.3 0 0 46.63 116.57
  Q 44.18 118.95 41.97 122.47
  Q 41.78 122.78 40.70 125.31
  A 0.43 0.43 0.0 0 0 41.08 125.91
  Q 42.23 125.97 43.30 127.32
  A 1.50 1.48 -12.0 0 0 44.17 127.88
  Q 44.51 127.96 49.49 130.53
  Q 52.41 132.03 54.91 132.88
  Q 74.75 139.57 95.12 132.80
  A 0.64 0.63 -25.4 0 0 95.46 131.86
  Q 90.21 123.57 87.19 118.69
  C 84.61 114.51 83.47 111.93 81.32 107.47
  Q 80.91 106.61 80.53 104.83
  Q 79.19 98.49 79.50 91.90
  A 1.69 1.69 0.0 0 1 81.13 90.30
  Q 84.63 90.19 87.51 91.44
  Q 88.56 91.90 92.10 90.82
  A 1.25 1.22 -1.1 0 0 92.93 89.98
  L 94.49 84.54
  A 0.53 0.49 85.1 0 1 94.73 84.23
  L 97.03 82.90
  A 0.40 0.39 41.2 0 0 96.98 82.19
  L 93.89 80.92
  A 0.13 0.13 0.0 0 1 93.87 80.69
  L 97.63 78.52
  A 0.71 0.69 76.6 0 0 97.97 77.95
  L 98.03 76.28
  A 0.99 0.98 -17.5 0 1 98.42 75.54
  L 101.79 73.06
  A 0.69 0.69 0.0 0 0 101.91 72.07
  Q 101.01 70.97 99.10 68.03
  Q 96.98 64.75 96.50 61.30
  A 2.74 2.73 47.9 0 1 96.55 60.29
  Q 96.92 58.74 96.26 58.19
  Q 94.55 56.78 92.52 56.42
  Q 92.03 56.33 87.86 55.71
  Z
  M 42.40 93.78
  Q 42.43 93.86 42.49 94.02
  A 0.51 0.51 0.0 0 1 42.42 94.54
  Q 41.17 96.13 39.98 97.73
  Q 36.69 102.16 31.32 103.40
  A 1.80 1.49 19.5 0 0 30.91 103.55
  L 26.41 105.80
  A 1.63 1.58 -86.1 0 0 25.74 106.40
  L 24.42 108.52
  A 1.11 1.10 38.5 0 0 24.58 109.88
  L 26.44 111.74
  A 0.45 0.45 0.0 0 0 27.20 111.53
  C 28.09 108.01 31.33 105.22 34.54 103.72
  C 39.43 101.44 43.95 98.58 46.40 93.81
  Q 46.74 93.15 46.96 93.03
  Q 47.46 92.77 47.52 92.29
  Q 47.59 91.66 47.73 91.27
  Q 49.05 87.33 49.11 86.08
  C 49.45 79.09 49.36 75.52 51.46 70.38
  Q 51.57 70.11 51.56 70.08
  Q 51.45 69.88 51.44 69.69
  A 0.57 0.54 75.6 0 1 51.74 69.16
  Q 52.67 68.67 53.09 67.36
  A 2.76 2.69 74.0 0 1 53.53 66.54
  Q 59.08 59.52 67.41 55.80
  C 69.49 54.87 71.81 54.45 73.65 53.64
  A 4.80 4.61 25.6 0 1 74.50 53.36
  Q 81.15 51.84 84.97 49.79
  Q 85.93 49.27 87.25 47.60
  A 0.12 0.12 0.0 0 0 87.10 47.42
  L 83.82 49.10
  A 2.37 2.18 26.7 0 1 82.98 49.34
  L 75.64 49.99
  A 0.54 0.47 -49.1 0 0 75.50 50.01
  Q 66.93 52.15 59.20 57.32
  C 56.92 58.84 55.63 60.44 53.41 62.25
  Q 52.34 63.12 50.92 65.00
  Q 49.37 67.07 48.75 68.13
  A 5.34 5.15 70.5 0 0 48.35 69.01
  Q 45.85 76.21 45.53 85.13
  A 1.04 0.55 73.2 0 1 45.50 85.28
  L 43.40 92.59
  A 0.66 0.64 80.1 0 1 43.17 92.93
  Q 42.55 93.38 42.41 93.67
  A 0.14 0.12 53.3 0 0 42.40 93.78
  Z
  M 72.85 55.79
  Q 73.15 56.00 73.57 55.72
  A 0.28 0.27 -36.9 0 0 73.63 55.32
  Q 73.56 55.23 73.28 55.23
  A 0.44 0.29 -18.4 0 0 72.85 55.79
  Z
  M 71.55 55.98
  A 0.19 0.18 -25.8 0 0 71.31 55.90
  Q 64.82 58.74 60.03 62.28
  Q 56.39 64.96 54.74 68.11
  Q 54.36 68.82 53.88 69.07
  Q 53.25 69.39 53.48 69.97
  A 0.71 0.70 -30.4 0 1 53.26 70.78
  Q 53.19 70.83 53.06 70.93
  A 1.46 1.44 -10.0 0 0 52.52 71.69
  Q 50.82 77.44 50.98 84.23
  Q 51.02 85.94 49.47 92.48
  A 0.78 0.76 -4.5 0 1 48.99 93.03
  Q 48.20 93.32 48.53 93.95
  A 0.63 0.62 62.0 0 1 48.28 94.79
  Q 47.44 95.24 46.98 96.53
  A 3.86 3.85 -13.1 0 1 46.13 97.89
  Q 42.69 101.48 40.16 102.88
  C 37.35 104.44 34.39 105.38 32.08 107.71
  Q 29.81 110.00 29.17 111.06
  Q 27.20 114.34 30.63 116.71
  A 0.59 0.58 -54.0 0 0 31.43 116.58
  Q 32.33 115.42 32.54 113.61
  Q 32.56 113.38 33.96 111.37
  Q 35.61 109.00 37.50 107.75
  Q 41.84 104.89 43.54 103.81
  C 45.99 102.26 46.93 100.99 49.05 98.97
  A 3.70 3.45 85.0 0 0 49.65 98.20
  Q 52.40 93.46 52.79 89.10
  Q 53.48 81.32 53.69 76.99
  A 1.97 1.67 -40.3 0 1 53.76 76.57
  L 55.48 70.60
  A 0.71 0.70 -9.2 0 1 55.79 70.18
  Q 56.72 69.64 56.49 68.97
  A 0.69 0.69 0.0 0 1 56.78 68.16
  Q 57.77 67.54 58.09 66.26
  A 1.84 1.81 -16.0 0 1 58.55 65.44
  L 62.71 61.29
  A 1.34 1.33 -82.0 0 1 63.00 61.07
  L 71.69 56.27
  A 0.02 0.02 0.0 0 0 71.70 56.24
  L 71.55 55.98
  Z
  M 64.20 62.43
  Q 62.11 63.77 59.88 66.67
  Q 56.12 71.55 55.51 77.27
  Q 55.14 80.85 54.83 86.44
  C 54.49 92.72 52.77 97.75 48.86 102.09
  Q 47.08 104.07 39.99 108.22
  A 3.84 3.82 8.3 0 0 39.29 108.74
  Q 36.45 111.41 35.78 112.03
  Q 34.66 113.06 32.80 118.14
  A 0.90 0.90 0.0 0 0 33.01 119.09
  L 34.34 120.42
  A 0.29 0.29 0.0 0 0 34.83 120.29
  Q 37.15 111.89 45.58 108.15
  Q 47.40 107.34 51.98 103.13
  C 53.01 102.19 53.06 100.37 54.21 99.85
  A 0.63 0.62 63.0 0 0 54.49 98.97
  Q 54.15 98.37 54.96 98.07
  A 0.70 0.70 0.0 0 0 55.39 97.59
  L 56.85 91.69
  A 3.80 3.34 -41.3 0 0 56.94 90.99
  L 57.45 76.98
  A 2.19 1.99 56.2 0 1 57.51 76.57
  Q 58.52 72.73 59.28 70.51
  Q 59.46 69.97 62.00 66.03
  Q 62.90 64.63 64.39 62.63
  A 0.14 0.14 0.0 0 0 64.20 62.43
  Z
  M 62.39 67.75
  Q 60.29 72.72 59.66 76.30
  Q 59.05 79.78 58.93 88.50
  Q 58.87 93.23 55.68 101.16
  A 1.81 1.76 81.0 0 1 55.20 101.84
  Q 53.55 103.31 52.62 105.32
  A 1.41 1.39 -0.8 0 1 51.95 106.00
  Q 49.65 107.08 47.65 109.07
  A 2.37 2.34 -76.7 0 1 46.71 109.66
  Q 45.73 109.98 41.77 112.52
  Q 39.33 114.09 38.68 116.15
  A 0.97 0.75 83.0 0 1 38.47 116.50
  L 37.91 117.06
  A 1.39 1.36 71.7 0 0 37.52 117.86
  Q 37.39 118.83 36.67 120.23
  A 2.70 2.68 -51.7 0 0 37.01 123.21
  L 37.07 123.28
  A 1.29 1.28 -51.0 0 0 39.22 123.05
  L 41.39 118.71
  A 1.55 1.44 82.7 0 1 41.67 118.32
  L 46.72 113.27
  A 2.06 1.92 -80.6 0 1 47.02 113.04
  C 54.64 108.56 59.03 103.77 60.42 95.27
  Q 61.16 90.80 60.97 78.00
  Q 60.90 73.27 62.80 67.85
  A 0.18 0.17 -70.5 0 0 62.70 67.63
  L 62.69 67.62
  A 0.23 0.22 -67.3 0 0 62.39 67.75
  Z
  M 98.09 131.44
  Q 100.31 130.94 102.26 129.84
  A 0.33 0.33 0.0 0 0 102.35 129.33
  Q 101.32 128.14 101.33 127.98
  A 4.37 4.30 34.9 0 0 100.94 125.89
  Q 96.68 116.53 87.88 111.71
  A 2.62 2.58 -6.2 0 1 87.21 111.18
  Q 86.43 110.32 85.45 110.06
  A 0.28 0.28 0.0 0 0 85.14 110.48
  L 97.70 131.27
  A 0.38 0.37 67.9 0 0 98.09 131.44
  Z"
/>
<path fill="#000000" d="
  M 92.31 60.44
  Q 92.72 60.53 93.13 60.78
  C 93.72 61.14 94.21 61.09 94.45 61.26
  A 0.38 0.38 0.0 0 1 94.39 61.92
  Q 93.38 62.39 91.96 62.09
  Q 90.54 61.80 89.80 60.97
  A 0.38 0.38 0.0 0 1 90.02 60.33
  C 90.30 60.27 90.73 60.52 91.42 60.42
  Q 91.89 60.36 92.31 60.44
  Z"
/>
<path fill="#000000" d="
  M 74.50 77.12
  A 4.04 4.04 0.0 0 1 70.46 81.16
  A 4.04 4.04 0.0 0 1 66.42 77.12
  A 4.04 4.04 0.0 0 1 70.46 73.08
  A 4.04 4.04 0.0 0 1 74.50 77.12
  Z
  M 72.82 77.16
  A 2.46 2.46 0.0 0 0 70.36 74.70
  A 2.46 2.46 0.0 0 0 67.90 77.16
  A 2.46 2.46 0.0 0 0 70.36 79.62
  A 2.46 2.46 0.0 0 0 72.82 77.16
  Z"
/>
</svg>
