<?xml version="1.0" encoding="utf-8"?>
<!-- Generator: Adobe Illustrator 23.0.2, SVG Export Plug-In . SVG Version: 6.00 Build 0)  -->
<svg version="1.1" id="Layer_1" xmlns="http://www.w3.org/2000/svg" xmlns:xlink="http://www.w3.org/1999/xlink" x="0px" y="0px"
	 viewBox="0 0 550 550" style="enable-background:new 0 0 550 550;" xml:space="preserve">
<style type="text/css">
	.st0{fill:#6E4FA2;}
	.st1{fill:#111111;}
	.st2{fill:#FFFFFF;}
</style>
<path class="st0" d="M275,30C139.7,30,30,139.7,30,275s109.7,245,245,245s245-109.7,245-245S410.3,30,275,30z M385.8,192.6
	c2.5-1.4,5.2-2.1,7.9-2.1c5.5,0,10.9,2.9,13.8,8c2.2,3.6,2.8,7.9,1.7,12c-0.6,2.1-1.5,3.9-2.7,5.6c-1.3,1.6-2.8,3-4.7,4.1
	c-3.7,2.1-8,2.7-12.1,1.6c-4.1-1.1-7.5-3.7-9.7-7.4C375.6,206.8,378.2,197,385.8,192.6z M397.4,229.6v90.8c-2.5-0.4-5-0.4-7.5,0.1
	v-91c1.3,0.2,2.7,0.4,4,0.4C395,229.9,396.2,229.8,397.4,229.6z M297.8,143.3l78.9,47c-1.8,1.9-3.2,4-4.2,6.3l-77.7-46.3
	C296.2,148.2,297.2,145.8,297.8,143.3z M376.8,222.5c-0.2,0.2-0.5,0.4-0.8,0.6L299.6,264c-1-2.3-2.4-4.5-4-6.4l76.8-41.1
	c0.1,0,0.1-0.1,0.2-0.1c0.3,0.6,0.6,1.2,0.9,1.8C374.4,219.7,375.5,221.2,376.8,222.5z M275,121.9c8.8,0,15.9,7.1,15.9,15.9
	c0,8.8-7.1,15.9-15.9,15.9s-15.9-7.1-15.9-15.9C259.1,129,266.2,121.9,275,121.9z M278.8,160.9v87.3c-1.2-0.2-2.5-0.3-3.8-0.3
	s-2.5,0.1-3.8,0.3v-87.3c1.3,0.2,2.5,0.3,3.8,0.3S277.5,161.1,278.8,160.9z M142.5,198.5c2.9-5.1,8.3-8,13.8-8
	c2.7,0,5.4,0.7,7.9,2.1c7.5,4.4,10.1,14.2,5.8,21.8c-4.4,7.6-14.1,10.2-21.7,5.8C140.7,215.8,138.1,206.1,142.5,198.5z M160.2,229.5
	v91c-2.5-0.4-5-0.5-7.5-0.1v-90.8c1.2,0.2,2.3,0.3,3.5,0.3C157.5,229.8,158.8,229.7,160.2,229.5z M164.1,357.4
	c-3.7,2.1-8,2.7-12.1,1.6s-7.5-3.7-9.7-7.4c-4.4-7.6-1.8-17.4,5.8-21.7c2.5-1.4,5.2-2.1,7.9-2.1c5.5,0,10.9,2.9,13.8,8
	C174.3,343.2,171.7,353,164.1,357.4z M251.6,409.8l-81.2-47.6c2.1-1.6,3.9-3.5,5.3-5.6l78,45.7C252.6,404.6,251.9,407.2,251.6,409.8
	z M178.7,337.3c-0.5-1.9-1.3-3.7-2.3-5.4c-0.3-0.5-0.6-1-0.9-1.5l75-44c1.1,2.3,2.5,4.4,4.1,6.3L178.7,337.3z M175.2,220
	c0.4-0.6,0.9-1.3,1.2-1.9c0.9-1.6,1.6-3.2,2.1-4.9l75.1,45.3c-1.5,2-2.8,4.2-3.7,6.5L175.2,220z M177.5,196.6
	c-1-2.3-2.5-4.4-4.2-6.3l78.9-47c0.6,2.5,1.6,4.9,3,7L177.5,196.6z M257.4,266.4c0.2-0.2,0.4-0.5,0.6-0.7c0.2-0.3,0.4-0.7,0.4-1.1
	c3.5-5.4,9.5-9,16.4-9c10.9-0.1,19.6,8.7,19.6,19.4s-8.7,19.5-19.5,19.5c-10.7,0-19.5-8.7-19.5-19.5
	C255.4,271.9,256.1,269,257.4,266.4z M278.8,301.7V389c-1.2-0.2-2.5-0.3-3.8-0.3s-2.5,0.1-3.8,0.3v-87.3c1.2,0.2,2.5,0.3,3.8,0.3
	S277.5,301.9,278.8,301.7z M275,428.1c-8.8,0-15.9-7.1-15.9-15.9c0-8.8,7.1-15.9,15.9-15.9s15.9,7.1,15.9,15.9
	C290.9,421,283.8,428.1,275,428.1z M298.6,288l78.7,39c-1.5,1.4-2.7,3.1-3.8,4.9c-0.2,0.4-0.5,0.8-0.7,1.3L294,294.1
	C295.8,292.3,297.4,290.2,298.6,288z M378.6,361.7l-80.3,47.8c-0.3-2.7-1-5.2-2.2-7.5l77.7-46.2c1.3,2.2,3,4.1,5,5.8
	C378.7,361.6,378.7,361.7,378.6,361.7z M407.6,351.6c-2.9,5.1-8.3,8-13.8,8c-2.7,0-5.4-0.7-7.9-2.1c-7.6-4.4-10.2-14.1-5.8-21.8
	c2.1-3.7,5.6-6.3,9.7-7.4c1.4-0.4,2.8-0.5,4.1-0.5c2.8,0,5.5,0.7,7.9,2.1c3.7,2.1,6.3,5.6,7.4,9.7
	C410.3,343.6,409.7,347.9,407.6,351.6z"/>
<path class="st1" d="M152.7,229.6c1.2,0.2,2.3,0.3,3.5,0.3c1.3-0.1,2.6-0.2,4-0.4v91c-2.5-0.4-5-0.5-7.5-0.1V229.6z"/>
<path class="st1" d="M164.1,357.4c-3.7,2.1-8,2.7-12.1,1.6s-7.5-3.7-9.7-7.4c-4.4-7.6-1.8-17.4,5.8-21.7c2.5-1.4,5.2-2.1,7.9-2.1
	c5.5,0,10.9,2.9,13.8,8C174.3,343.2,171.7,353,164.1,357.4z"/>
<path class="st1" d="M142.5,198.5c2.9-5.1,8.3-8,13.8-8c2.7,0,5.4,0.7,7.9,2.1c7.5,4.4,10.1,14.2,5.8,21.8
	c-4.4,7.6-14.1,10.2-21.7,5.8C140.7,215.8,138.1,206.1,142.5,198.5z"/>
<path class="st1" d="M249.9,265l-74.7-45c0.4-0.6,0.9-1.3,1.2-1.9c0.9-1.6,1.6-3.2,2.1-4.9l75.1,45.3
	C252.1,260.5,250.8,262.7,249.9,265z"/>
<path class="st1" d="M175.7,356.6l78,45.7c-1.1,2.3-1.8,4.9-2.1,7.5l-81.2-47.6C172.5,360.6,174.3,358.7,175.7,356.6z"/>
<path class="st1" d="M250.5,286.4c1.1,2.3,2.5,4.4,4.1,6.3l-75.9,44.6c-0.5-1.9-1.3-3.7-2.3-5.4c-0.3-0.5-0.6-1-0.9-1.5L250.5,286.4
	z"/>
<path class="st1" d="M252.2,143.3c0.6,2.5,1.6,4.9,3,7l-77.7,46.3c-1-2.3-2.5-4.4-4.2-6.3L252.2,143.3z"/>
<path class="st1" d="M275,161.2c1.3,0,2.5-0.1,3.8-0.3v87.3c-1.2-0.2-2.5-0.3-3.8-0.3s-2.5,0.1-3.8,0.3v-87.3
	C272.5,161.1,273.7,161.2,275,161.2z"/>
<path class="st1" d="M271.2,301.7c1.2,0.2,2.5,0.3,3.8,0.3s2.5-0.1,3.8-0.3V389c-1.2-0.2-2.5-0.3-3.8-0.3s-2.5,0.1-3.8,0.3V301.7z"
	/>
<ellipse transform="matrix(0.1602 -0.9871 0.9871 0.1602 -175.9276 617.6219)" class="st1" cx="275" cy="412.2" rx="15.9" ry="15.9"/>
<ellipse transform="matrix(0.1602 -0.9871 0.9871 0.1602 94.9292 387.1759)" class="st1" cx="275" cy="137.8" rx="15.9" ry="15.9"/>
<path class="st1" d="M255.4,275c0-3.1,0.7-6,2-8.6c0.2-0.2,0.4-0.5,0.6-0.7c0.2-0.3,0.4-0.7,0.4-1.1c3.5-5.4,9.5-9,16.4-9
	c10.9-0.1,19.6,8.7,19.6,19.4s-8.7,19.5-19.5,19.5C264.2,294.5,255.4,285.8,255.4,275z"/>
<path class="st1" d="M373.5,218.2c0.9,1.5,2,3,3.3,4.3c-0.2,0.2-0.5,0.4-0.8,0.6L299.6,264c-1-2.3-2.4-4.5-4-6.4l76.8-41.1
	c0.1,0,0.1-0.1,0.2-0.1C372.9,217,373.2,217.6,373.5,218.2z"/>
<path class="st1" d="M372.5,196.6l-77.7-46.3c1.4-2.1,2.4-4.5,3-7l78.9,47C374.9,192.2,373.5,194.3,372.5,196.6z"/>
<path class="st1" d="M372.8,333.2L294,294.1c1.8-1.8,3.4-3.9,4.6-6.1l78.7,39c-1.5,1.4-2.7,3.1-3.8,4.9
	C373.3,332.3,373,332.7,372.8,333.2z"/>
<path class="st1" d="M378.8,361.6c-0.1,0-0.1,0.1-0.2,0.1l-80.3,47.8c-0.3-2.7-1-5.2-2.2-7.5l77.7-46.2
	C375.1,358,376.8,359.9,378.8,361.6z"/>
<path class="st1" d="M393.9,229.9c1.1,0,2.3-0.1,3.5-0.3v90.8c-2.5-0.4-5-0.4-7.5,0.1v-91C391.2,229.7,392.6,229.9,393.9,229.9z"/>
<path class="st1" d="M407.6,351.6c-2.9,5.1-8.3,8-13.8,8c-2.7,0-5.4-0.7-7.9-2.1c-7.6-4.4-10.2-14.1-5.8-21.8
	c2.1-3.7,5.6-6.3,9.7-7.4c1.4-0.4,2.8-0.5,4.1-0.5c2.8,0,5.5,0.7,7.9,2.1c3.7,2.1,6.3,5.6,7.4,9.7
	C410.3,343.6,409.7,347.9,407.6,351.6z"/>
<path class="st1" d="M380,214.4c-4.4-7.6-1.8-17.4,5.8-21.8c2.5-1.4,5.2-2.1,7.9-2.1c5.5,0,10.9,2.9,13.8,8c2.2,3.6,2.8,7.9,1.7,12
	c-0.6,2.1-1.5,3.9-2.7,5.6c-1.3,1.6-2.8,3-4.7,4.1c-3.7,2.1-8,2.7-12.1,1.6C385.6,220.7,382.2,218.1,380,214.4z"/>
<g id="_x31_001_-_Blockchain_Node">
	<g>
		<g>
			<g>
				<g>
					<path class="st2" d="M294.4,275c0,10.7-8.7,19.5-19.5,19.5c-10.7,0-19.5-8.7-19.5-19.5c0-3.1,0.7-6,2-8.6
						c0.2-0.2,0.4-0.5,0.6-0.7c0.2-0.3,0.4-0.7,0.4-1.1c3.5-5.4,9.5-9,16.4-9C285.7,255.5,294.4,264.3,294.4,275z"/>
				</g>
			</g>
		</g>
		<g>
			<g>
				
					<ellipse transform="matrix(0.9239 -0.3827 0.3827 0.9239 -31.8006 115.7273)" class="st2" cx="275" cy="137.8" rx="15.9" ry="15.9"/>
			</g>
		</g>
		<g>
			<g>
				<path class="st2" d="M170,214.4c-4.4,7.6-14.1,10.2-21.7,5.8c-7.6-4.4-10.2-14.1-5.8-21.7c2.9-5.1,8.3-8,13.8-8
					c2.7,0,5.4,0.7,7.9,2.1C171.7,197,174.3,206.8,170,214.4z"/>
			</g>
		</g>
		<g>
			<g>
				<path class="st2" d="M164.1,357.4c-3.7,2.1-8,2.7-12.1,1.6s-7.5-3.7-9.7-7.4c-4.4-7.6-1.8-17.4,5.8-21.7
					c2.5-1.4,5.2-2.1,7.9-2.1c5.5,0,10.9,2.9,13.8,8C174.3,343.2,171.7,353,164.1,357.4z"/>
			</g>
		</g>
		<g>
			<g>
				
					<ellipse transform="matrix(0.1602 -0.9871 0.9871 0.1602 -175.9276 617.6219)" class="st2" cx="275" cy="412.2" rx="15.9" ry="15.9"/>
			</g>
		</g>
		<g>
			<g>
				<path class="st2" d="M407.6,351.6c-2.9,5.1-8.3,8-13.8,8c-2.7,0-5.4-0.7-7.9-2.1c-7.6-4.4-10.2-14.1-5.8-21.8
					c2.1-3.7,5.6-6.3,9.7-7.4c1.4-0.4,2.8-0.5,4.1-0.5c2.8,0,5.5,0.7,7.9,2.1c3.7,2.1,6.3,5.6,7.4,9.7
					C410.3,343.6,409.7,347.9,407.6,351.6z"/>
			</g>
		</g>
		<g>
			<g>
				<path class="st2" d="M409.2,210.5c-0.6,2.1-1.5,3.9-2.7,5.6c-1.3,1.6-2.8,3-4.7,4.1c-3.7,2.1-8,2.7-12.1,1.6
					c-4.1-1.1-7.5-3.7-9.7-7.4c-4.4-7.6-1.8-17.4,5.8-21.8c2.5-1.4,5.2-2.1,7.9-2.1c5.5,0,10.9,2.9,13.8,8
					C409.7,202.1,410.3,206.4,409.2,210.5z"/>
			</g>
		</g>
		<g>
			<g>
				<path class="st2" d="M278.8,301.7V389c-1.2-0.2-2.5-0.3-3.8-0.3s-2.5,0.1-3.8,0.3v-87.3c1.2,0.2,2.5,0.3,3.8,0.3
					S277.5,301.9,278.8,301.7z"/>
			</g>
		</g>
		<g>
			<g>
				<path class="st2" d="M255.2,150.3l-77.7,46.3c-1-2.3-2.5-4.4-4.2-6.3l78.9-47C252.8,145.8,253.8,148.2,255.2,150.3z"/>
			</g>
		</g>
		<g>
			<g>
				<path class="st2" d="M253.7,402.3c-1.1,2.3-1.8,4.9-2.1,7.5l-81.2-47.6c2.1-1.6,3.9-3.5,5.3-5.6L253.7,402.3z"/>
			</g>
		</g>
		<g>
			<g>
				<path class="st2" d="M378.8,361.6c-0.1,0-0.1,0.1-0.2,0.1l-80.3,47.8c-0.3-2.7-1-5.2-2.2-7.5l77.7-46.2
					C375.1,358,376.8,359.9,378.8,361.6z"/>
			</g>
		</g>
		<g>
			<g>
				<path class="st2" d="M376.7,190.3c-1.8,1.9-3.2,4-4.2,6.3l-77.7-46.3c1.4-2.1,2.4-4.5,3-7L376.7,190.3z"/>
			</g>
		</g>
		<g>
			<g>
				<path class="st2" d="M160.2,229.5v91c-2.5-0.4-5-0.5-7.5-0.1v-90.8c1.2,0.2,2.3,0.3,3.5,0.3
					C157.5,229.8,158.8,229.7,160.2,229.5z"/>
			</g>
		</g>
		<g>
			<g>
				<path class="st2" d="M397.4,229.6v90.8c-2.5-0.4-5-0.4-7.5,0.1v-91c1.3,0.2,2.7,0.4,4,0.4C395,229.9,396.2,229.8,397.4,229.6z"
					/>
			</g>
		</g>
		<g>
			<g>
				<g>
					<path class="st2" d="M376.8,222.5c-0.2,0.2-0.5,0.4-0.8,0.6L299.6,264c-1-2.3-2.4-4.5-4-6.4l76.8-41.1c0.1,0,0.1-0.1,0.2-0.1
						c0.3,0.6,0.6,1.2,0.9,1.8C374.4,219.7,375.5,221.2,376.8,222.5z"/>
					<path class="st2" d="M278.8,160.9v87.3c-1.2-0.2-2.5-0.3-3.8-0.3s-2.5,0.1-3.8,0.3v-87.3c1.3,0.2,2.5,0.3,3.8,0.3
						S277.5,161.1,278.8,160.9z"/>
				</g>
			</g>
			<g>
				<g>
					<path class="st2" d="M377.3,327c-1.5,1.4-2.7,3.1-3.8,4.9c-0.2,0.4-0.5,0.8-0.7,1.3L294,294.1c1.8-1.8,3.4-3.9,4.6-6.1
						L377.3,327z"/>
				</g>
			</g>
		</g>
		<g>
			<g>
				<g>
					<path class="st2" d="M253.6,258.5c-1.5,2-2.8,4.2-3.7,6.5l-74.7-45c0.4-0.6,0.9-1.3,1.2-1.9c0.9-1.6,1.6-3.2,2.1-4.9
						L253.6,258.5z"/>
				</g>
			</g>
			<g>
				<g>
					<path class="st2" d="M254.6,292.7l-75.9,44.6c-0.5-1.9-1.3-3.7-2.3-5.4c-0.3-0.5-0.6-1-0.9-1.5l75-44
						C251.6,288.7,253,290.8,254.6,292.7z"/>
				</g>
			</g>
		</g>
	</g>
</g>
</svg>
